<svg xmlns="http://www.w3.org/2000/svg" height="100" width="100">
<!--    
    <defs>
        <linearGradient id="grad" gradientTransform="rotate(90)">
            <stop offset="65%" stop-color="#f44336" />
            <stop offset="100%"  stop-color="gold" />
        </linearGradient>
    </defs>
    <path fill="url('#grad')" d="M8 42V39H39.95V42ZM15.55 36Q12.4 36 10.2 33.825Q8 31.65 8 28.5V6H41Q42.25 6 43.125 6.875Q44 7.75 44 9V17Q44 18.25 43.125 19.125Q42.25 20 41 20H36.2V28.5Q36.2 31.65 34 33.825Q31.8 36 28.65 36ZM36.2 17H41Q41 17 41 17Q41 17 41 17V9Q41 9 41 9Q41 9 41 9H36.2Z"/> -->
    <text y="85" x="10" fill="black" background-color="white" font-size="95">M</text>
</svg>